<svg width="12" height="12" viewBox="0 0 12 12" fill="none" xmlns="http://www.w3.org/2000/svg">
<path d="M6 11.625C4.81667 11.625 3.73334 10.875 2.95 9.51667L0.725004 5.65833C-0.0666631 4.3 -0.166663 2.99167 0.425003 1.96667C1.01667 0.941666 2.20834 0.375 3.775 0.375H8.225C9.79167 0.375 10.9833 0.941666 11.575 1.96667C12.1667 2.99167 12.0583 4.30833 11.275 5.66667L9.05 9.525C8.26667 10.875 7.18334 11.625 6 11.625ZM3.775 1.625C2.66667 1.625 1.86667 1.96667 1.50834 2.59167C1.14167 3.21667 1.25 4.08333 1.8 5.03333L4.025 8.89167C4.575 9.85 5.275 10.375 5.99167 10.375C6.70834 10.375 7.40834 9.85 7.95834 8.89167L10.1833 5.03333C10.7333 4.075 10.8417 3.20833 10.4833 2.58333C10.125 1.95833 9.31667 1.61667 8.21667 1.61667H3.775V1.625Z" fill="#292D32"/>
</svg>
