<svg width="127" height="20" viewBox="0 0 127 20" fill="none" xmlns="http://www.w3.org/2000/svg">
<rect x="8" y="6.5" width="9" height="9" rx="4.5" fill="#14213D"/>
<path d="M16.5 11C16.5 13.2091 14.7091 15 12.5 15C10.2909 15 8.5 13.2091 8.5 11C8.5 8.79086 10.2909 7 12.5 7C14.7091 7 16.5 8.79086 16.5 11ZM8.9 11C8.9 12.9882 10.5118 14.6 12.5 14.6C14.4882 14.6 16.1 12.9882 16.1 11C16.1 9.01178 14.4882 7.4 12.5 7.4C10.5118 7.4 8.9 9.01178 8.9 11Z" fill="#F2F2F2"/>
<circle cx="14.5" cy="13" r="0.5" transform="rotate(180 14.5 13)" fill="#F2EFF9"/>
<circle cx="13" cy="11.5" r="1" transform="rotate(180 13 11.5)" fill="#F2EFF9"/>
<rect x="8" y="6.5" width="9" height="9" rx="4.5" fill="#14213D"/>
<path d="M16.5 11C16.5 13.2091 14.7091 15 12.5 15C10.2909 15 8.5 13.2091 8.5 11C8.5 8.79086 10.2909 7 12.5 7C14.7091 7 16.5 8.79086 16.5 11ZM8.9 11C8.9 12.9882 10.5118 14.6 12.5 14.6C14.4882 14.6 16.1 12.9882 16.1 11C16.1 9.01178 14.4882 7.4 12.5 7.4C10.5118 7.4 8.9 9.01178 8.9 11Z" fill="#F2F2F2"/>
<circle cx="14.5" cy="13" r="0.5" transform="rotate(180 14.5 13)" fill="#F2EFF9"/>
<circle cx="13" cy="11.5" r="1" transform="rotate(180 13 11.5)" fill="#F2EFF9"/>
<rect x="8" y="6.5" width="9" height="9" rx="4.5" fill="#14213D"/>
<path d="M16.5 11C16.5 13.2091 14.7091 15 12.5 15C10.2909 15 8.5 13.2091 8.5 11C8.5 8.79086 10.2909 7 12.5 7C14.7091 7 16.5 8.79086 16.5 11ZM8.9 11C8.9 12.9882 10.5118 14.6 12.5 14.6C14.4882 14.6 16.1 12.9882 16.1 11C16.1 9.01178 14.4882 7.4 12.5 7.4C10.5118 7.4 8.9 9.01178 8.9 11Z" fill="#F2F2F2"/>
<circle cx="14.5" cy="13" r="0.5" transform="rotate(180 14.5 13)" fill="#F2EFF9"/>
<circle cx="12.75" cy="11.25" r="1.25" transform="rotate(180 12.75 11.25)" fill="#F2EFF9"/>
<path d="M12.5 9.3125L12.2188 8.46875C11.3665 8.55777 11.0209 8.84587 10.5312 9.59375L11.375 9.875C11.8864 9.40438 12.1128 9.34755 12.5 9.3125Z" fill="#F2EFF9"/>
<path d="M11.0938 10.1562C11.0938 10.1562 10.8346 10.578 10.8125 10.7188H10.25C10.2585 10.3432 10.5312 9.875 10.5312 9.875L11.0938 10.1562Z" fill="#F2F2F2"/>
<path d="M14.4332 2.5H9.66006C9.11652 2.5 8.64151 2.86694 8.50424 3.39286C8.36696 3.91877 7.89195 4.28571 7.34841 4.28571H3C1.89543 4.28571 1 5.18114 1 6.28571V15.5C1 16.6046 1.89543 17.5 3 17.5H21C22.1046 17.5 23 16.6046 23 15.5V6.28571C23 5.18114 22.1046 4.28571 21 4.28571H16.7448C16.2013 4.28571 15.7263 3.91877 15.589 3.39286C15.4517 2.86694 14.9767 2.5 14.4332 2.5Z" stroke="#14213D" stroke-width="2"/>
<circle cx="6.5" cy="7" r="0.5" fill="#F2EFF9"/>
<rect width="4" height="2" transform="translate(17 6.5)" fill="#14213D"/>
<path d="M24.7 10C24.7 8.62667 25.0067 7.4 25.62 6.32C26.2467 5.22667 27.0933 4.38 28.16 3.78C29.24 3.16667 30.4467 2.86 31.78 2.86C33.34 2.86 34.7067 3.26 35.88 4.06C37.0533 4.86 37.8733 5.96667 38.34 7.38H35.12C34.8 6.71333 34.3467 6.21333 33.76 5.88C33.1867 5.54667 32.52 5.38 31.76 5.38C30.9467 5.38 30.22 5.57333 29.58 5.96C28.9533 6.33333 28.46 6.86667 28.1 7.56C27.7533 8.25333 27.58 9.06667 27.58 10C27.58 10.92 27.7533 11.7333 28.1 12.44C28.46 13.1333 28.9533 13.6733 29.58 14.06C30.22 14.4333 30.9467 14.62 31.76 14.62C32.52 14.62 33.1867 14.4533 33.76 14.12C34.3467 13.7733 34.8 13.2667 35.12 12.6H38.34C37.8733 14.0267 37.0533 15.14 35.88 15.94C34.72 16.7267 33.3533 17.12 31.78 17.12C30.4467 17.12 29.24 16.82 28.16 16.22C27.0933 15.6067 26.2467 14.76 25.62 13.68C25.0067 12.6 24.7 11.3733 24.7 10ZM48.5416 14.34H42.9816L42.0616 17H39.1216L44.1416 3.02H47.4016L52.4216 17H49.4616L48.5416 14.34ZM47.7816 12.1L45.7616 6.26L43.7416 12.1H47.7816ZM68.768 3.04V17H65.968V7.92L62.228 17H60.108L56.348 7.92V17H53.548V3.04H56.728L61.168 13.42L65.608 3.04H68.768ZM75.6063 17.14C74.6329 17.14 73.7529 16.9733 72.9663 16.64C72.1929 16.3067 71.5796 15.8267 71.1263 15.2C70.6729 14.5733 70.4396 13.8333 70.4263 12.98H73.4263C73.4663 13.5533 73.6663 14.0067 74.0263 14.34C74.3996 14.6733 74.9063 14.84 75.5463 14.84C76.1996 14.84 76.7129 14.6867 77.0863 14.38C77.4596 14.06 77.6463 13.6467 77.6463 13.14C77.6463 12.7267 77.5196 12.3867 77.2663 12.12C77.0129 11.8533 76.6929 11.6467 76.3063 11.5C75.9329 11.34 75.4129 11.1667 74.7463 10.98C73.8396 10.7133 73.0996 10.4533 72.5263 10.2C71.9663 9.93333 71.4796 9.54 71.0663 9.02C70.6663 8.48667 70.4663 7.78 70.4663 6.9C70.4663 6.07333 70.6729 5.35333 71.0863 4.74C71.4996 4.12667 72.0796 3.66 72.8263 3.34C73.5729 3.00667 74.4263 2.84 75.3863 2.84C76.8263 2.84 77.9929 3.19333 78.8863 3.9C79.7929 4.59333 80.2929 5.56667 80.3863 6.82H77.3063C77.2796 6.34 77.0729 5.94667 76.6863 5.64C76.3129 5.32 75.8129 5.16 75.1863 5.16C74.6396 5.16 74.1996 5.3 73.8663 5.58C73.5463 5.86 73.3863 6.26667 73.3863 6.8C73.3863 7.17333 73.5063 7.48667 73.7463 7.74C73.9996 7.98 74.3063 8.18 74.6663 8.34C75.0396 8.48667 75.5596 8.66 76.2263 8.86C77.1329 9.12667 77.8729 9.39333 78.4463 9.66C79.0196 9.92667 79.5129 10.3267 79.9263 10.86C80.3396 11.3933 80.5463 12.0933 80.5463 12.96C80.5463 13.7067 80.3529 14.4 79.9662 15.04C79.5796 15.68 79.0129 16.1933 78.2663 16.58C77.5196 16.9533 76.6329 17.14 75.6063 17.14ZM91.7238 3.04V5.3H88.0038V17H85.2038V5.3H81.4838V3.04H91.7238Z" fill="#14213D"/>
<rect x="89" y="2" width="16" height="16" rx="8" fill="#14213D"/>
<path d="M101 10C101 12.2091 99.2091 14 97 14C94.7909 14 93 12.2091 93 10C93 7.79086 94.7909 6 97 6C99.2091 6 101 7.79086 101 10ZM93.4 10C93.4 11.9882 95.0118 13.6 97 13.6C98.9882 13.6 100.6 11.9882 100.6 10C100.6 8.01178 98.9882 6.4 97 6.4C95.0118 6.4 93.4 8.01178 93.4 10Z" fill="#F2F2F2"/>
<circle cx="95.5" cy="8.5" r="0.5" transform="rotate(180 95.5 8.5)" fill="#D9D9D9"/>
<circle cx="94" cy="7" r="1" transform="rotate(180 94 7)" fill="#D9D9D9"/>
<rect x="89" y="2" width="16" height="16" rx="8" fill="#14213D"/>
<path d="M101 10C101 12.2091 99.2091 14 97 14C94.7909 14 93 12.2091 93 10C93 7.79086 94.7909 6 97 6C99.2091 6 101 7.79086 101 10ZM93.4 10C93.4 11.9882 95.0118 13.6 97 13.6C98.9882 13.6 100.6 11.9882 100.6 10C100.6 8.01178 98.9882 6.4 97 6.4C95.0118 6.4 93.4 8.01178 93.4 10Z" fill="#F2F2F2"/>
<circle cx="95.5" cy="8.5" r="0.5" transform="rotate(180 95.5 8.5)" fill="#D9D9D9"/>
<circle cx="94" cy="7" r="1" transform="rotate(180 94 7)" fill="#D9D9D9"/>
<rect x="89" y="2" width="16" height="16" rx="8" fill="#14213D"/>
<path d="M103 10C103 13.3137 100.314 16 97 16C93.6863 16 91 13.3137 91 10C91 6.68629 93.6863 4 97 4C100.314 4 103 6.68629 103 10ZM91.6 10C91.6 12.9823 94.0177 15.4 97 15.4C99.9823 15.4 102.4 12.9823 102.4 10C102.4 7.01766 99.9823 4.6 97 4.6C94.0177 4.6 91.6 7.01766 91.6 10Z" fill="#F2EFF9"/>
<circle cx="99.5" cy="12.5" r="0.5" transform="rotate(180 99.5 12.5)" fill="#F2EFF9"/>
<circle cx="97" cy="10" r="2" transform="rotate(180 97 10)" fill="#F2EFF9"/>
<path d="M97 7L96.5 5.5C94.9849 5.65826 94.3705 6.17044 93.5 7.5L95 8C95.9091 7.16334 96.3116 7.06231 97 7Z" fill="#D9D9D9"/>
<path d="M94.5 8.5C94.5 8.5 94.0393 9.24973 94 9.5H93C93.015 8.83237 93.5 8 93.5 8L94.5 8.5Z" fill="#F2F2F2"/>
<path d="M112.58 17L109.5 11.56H108.18V17H105.38V3.04H110.62C111.7 3.04 112.62 3.23333 113.38 3.62C114.14 3.99333 114.707 4.50667 115.08 5.16C115.467 5.8 115.66 6.52 115.66 7.32C115.66 8.24 115.393 9.07333 114.86 9.82C114.327 10.5533 113.533 11.06 112.48 11.34L115.82 17H112.58ZM108.18 9.46H110.52C111.28 9.46 111.847 9.28 112.22 8.92C112.593 8.54667 112.78 8.03333 112.78 7.38C112.78 6.74 112.593 6.24667 112.22 5.9C111.847 5.54 111.28 5.36 110.52 5.36H108.18V9.46ZM120.243 5.3V8.8H124.943V11.02H120.243V14.72H125.543V17H117.443V3.02H125.543V5.3H120.243Z" fill="#14213D"/>
</svg>
